<svg xmlns="http://www.w3.org/2000/svg" viewBox="0 0 400 400">
    <!-- Background -->
    <rect width="400" height="400" fill="#313244"/>

    <!-- Grid pattern -->
    <path d="M0 40 L400 40 M0 80 L400 80 M0 120 L400 120 M0 160 L400 160 M0 200 L400 200 M0 240 L400 240 M0 280 L400 280 M0 320 L400 320 M0 360 L400 360" stroke="#45475a" stroke-width="1"/>
    <path d="M40 0 L40 400 M80 0 L80 400 M120 0 L120 400 M160 0 L160 400 M200 0 L200 400 M240 0 L240 400 M280 0 L280 400 M320 0 L320 400 M360 0 L360 400" stroke="#45475a" stroke-width="1"/>

    <!-- Image icon -->
    <rect x="120" y="120" width="160" height="120" rx="8" fill="#45475a"/>
    <circle cx="160" cy="150" r="12" fill="#89b4fa"/>
    <path d="M140 200 L160 180 L180 200" fill="none" stroke="#89b4fa" stroke-width="4" stroke-linecap="round" stroke-linejoin="round"/>
    <path d="M180 200 L200 160 L240 200" fill="none" stroke="#cba6f7" stroke-width="4" stroke-linecap="round" stroke-linejoin="round"/>

    <!-- Text -->
    <text x="200" y="260" font-family="sans-serif" font-size="18" font-weight="bold" fill="#cdd6f4" text-anchor="middle">No Image</text>
</svg>